/vscmnt/brussel_pixiu_data/_data_brussel/112/vsc11236/PredSimResults/SUBJ11opt3D/weighted-LRposFixed/trackIG/worker_01.mot
version=1
nRows=7
nColumns=50
inDegrees=yes
endheader
                time	         pelvis_tilt	         pelvis_list	     pelvis_rotation	           pelvis_tx	           pelvis_ty	           pelvis_tz	       hip_flexion_r	     hip_adduction_r	      hip_rotation_r	        knee_angle_r	       ankle_angle_r	         mtp_angle_r	       hip_flexion_l	     hip_adduction_l	      hip_rotation_l	        knee_angle_l	       ankle_angle_l	         mtp_angle_l	    lumbar_extension	      lumbar_bending	     lumbar_rotation	 ercspn_r/activation	 intobl_r/activation	 extobl_r/activation	    abd_r/activation	    add_r/activation	hamstrings_r/activation	bifemsh_r/activation	glut_max_r/activation	iliopsoas_r/activation	rect_fem_r/activation	  vasti_r/activation	gastroc_r/activation	 soleus_r/activation	tib_ant_r/activation	 ercspn_l/activation	 intobl_l/activation	 extobl_l/activation	    abd_l/activation	    add_l/activation	hamstrings_l/activation	bifemsh_l/activation	glut_max_l/activation	iliopsoas_l/activation	rect_fem_l/activation	  vasti_l/activation	gastroc_l/activation	 soleus_l/activation	tib_ant_l/activation	
          1.34053433	         -3.04444052	         -1.15867824	          5.41661468	          1.47458776	          0.94097031	         -0.00530980	         31.33279631	         -1.82063015	         -4.53049255	         -9.42392636	          1.90336636	          0.23155494	        -14.01417569	         -3.11775154	         -2.10142360	        -11.24954189	         12.67963933	         28.80600747	        -14.49375121	         -2.04752294	         -3.23036676	          0.03208636	          0.25396396	          0.06682589	          0.01000104	          0.18839515	          0.04489758	          0.16107180	          0.04287734	          0.10261082	          0.04172355	          0.01526866	          0.01000070	          0.01000011	          0.41224867	          0.01000145	          0.01000079	          0.01000115	          0.04102234	          0.01000238	          0.01653607	          0.27026010	          0.02379957	          0.15420586	          0.01000429	          0.01000116	          0.16427564	          0.32089515	          0.01496823	
          1.35393967	         -3.16127708	         -1.20780059	          5.57170708	          1.49303728	          0.93878243	         -0.00427521	         31.19400016	         -1.67246861	         -4.69185805	        -10.65274895	          1.35329960	          0.23960151	        -14.63956508	         -3.36698804	         -2.37830740	        -11.86357688	         11.87819703	         30.60576625	        -14.07452755	         -1.54789397	         -3.42791897	          0.02622794	          0.20758536	          0.05462214	          0.01000044	          0.21084079	          0.03768142	          0.13165830	          0.11506736	          0.08387202	          0.03410473	          0.01248044	          0.01381010	          0.01226746	          0.43702217	          0.02027163	          0.01000167	          0.01000324	          0.03353087	          0.05446721	          0.02184138	          0.22091088	          0.01945394	          0.16003806	          0.01000558	          0.01000219	          0.13448893	          0.30102704	          0.01223483	
          1.36734502	         -3.25554396	         -1.26799240	          5.70730227	          1.51193006	          0.93687079	         -0.00319064	         30.95310735	         -1.54969035	         -4.78626325	        -12.02653535	          0.88147294	          0.21107985	        -15.14741162	         -3.63963327	         -2.66836797	        -12.74780748	         10.93483392	         32.47306915	        -13.61710702	         -1.02821278	         -3.62072530	          0.02146816	          0.16967630	          0.04464705	          0.06813922	          0.22347932	          0.04495380	          0.10761599	          0.12581401	          0.06855531	          0.02787717	          0.01020151	          0.01128846	          0.01002727	          0.50583726	          0.01657267	          0.01000049	          0.01000207	          0.02740749	          0.04452149	          0.01785447	          0.18057153	          0.01590158	          0.17555739	          0.01000531	          0.01000149	          0.10992867	          0.27506458	          0.01000078	
          1.38075036	         -3.33034072	         -1.31622245	          5.81260693	          1.53092248	          0.93545211	         -0.00202478	         30.72280581	         -1.44900633	         -4.95486613	        -13.41807536	          0.21644173	          0.18278062	        -15.42619277	         -3.91275441	         -2.96860778	        -14.04641921	          9.81541278	         34.41298821	        -13.16378987	         -0.52058349	         -3.80007469	          0.03156187	          0.13869005	          0.03649362	          0.10456608	          0.27252949	          0.04130450	          0.08796394	          0.13545760	          0.05603575	          0.02278687	          0.02008468	          0.01000079	          0.01000030	          0.56065706	          0.04986583	          0.01000064	          0.01000135	          0.02240236	          0.04316890	          0.02093442	          0.14759797	          0.01299808	          0.14912251	          0.01000406	          0.01000177	          0.08985350	          0.24729197	          0.01000036	
          1.39415570	         -3.38477178	         -1.35367272	          5.88942416	          1.54982304	          0.93463192	         -0.00078578	         30.58682292	         -1.37061130	         -5.17807250	        -15.02042643	         -0.29269173	          0.13509999	        -15.40237754	         -4.19097833	         -3.27310652	        -15.86161599	          8.51634797	         36.37535190	        -12.73369677	         -0.02537856	         -3.96297342	          0.03649820	          0.11336252	          0.02982918	          0.13337266	          0.31769378	          0.04706050	          0.07190091	          0.13514798	          0.04580251	          0.01862616	          0.08421871	          0.01000132	          0.01000055	          0.58982752	          0.07512560	          0.01000072	          0.01000098	          0.01831127	          0.11339270	          0.01785485	          0.12064732	          0.01062478	          0.13588622	          0.01000243	          0.01000070	          0.07344445	          0.20563782	          0.01000033	
          1.40756105	         -3.42031281	         -1.37814487	          5.93641977	          1.56850375	          0.93451649	          0.00050028	         30.46892914	         -1.30304124	         -5.40703764	        -16.72118356	         -0.46235422	          0.08157085	        -15.00629720	         -4.47278543	         -3.58589335	        -18.29067675	          7.04175479	         38.22263487	        -12.33598738	          0.45506723	         -4.10446981	          0.02983608	          0.09266029	          0.02438180	          0.15189571	          0.34152955	          0.04791746	          0.05877156	          0.14903023	          0.03743808	          0.01522529	          0.13057974	          0.01000109	          0.01000036	          0.57945436	          0.10209226	          0.01000077	          0.01000128	          0.01496729	          0.17250478	          0.02236800	          0.09862219	          0.01000037	          0.11107521	          0.01000138	          0.01000033	          0.06003201	          0.16808415	          0.01000032	
          1.42096639	         -3.43892671	         -1.39085332	          5.95117944	          1.58681585	          0.93517958	          0.00179939	         30.29910729	         -1.23027748	         -5.59678772	        -18.40163313	         -0.19789878	          0.04052968	        -14.18322285	         -4.76086874	         -3.92307184	        -21.39529155	          5.40707859	         39.71962433	        -11.98233672	          0.92415535	         -4.21852007	          0.02438864	          0.07573872	          0.01992924	          0.16162218	          0.35526020	          0.05006892	          0.04804045	          0.14640352	          0.03060117	          0.01244558	          0.15668475	          0.01000082	          0.01000026	          0.52168861	          0.11511978	          0.01000119	          0.01000132	          0.01223400	          0.21160508	          0.03710507	          0.08483092	          0.01000027	          0.09079189	          0.01000073	          0.01000016	          0.04906897	          0.13738852	          0.01000065	
